<?xml version="1.0" encoding="UTF-8" standalone="no"?>
<!-- Created with Inkscape (http://www.inkscape.org/) -->

<svg
   width="256"
   height="256"
   viewBox="0 0 67.733332 67.733333"
   version="1.1"
   id="svg1"
   inkscape:version="1.3.2 (091e20e, 2023-11-25, custom)"
   xml:space="preserve"
   sodipodi:docname="Stukk_logo_base.svg"
   inkscape:export-filename="Stukk_logo_base.png"
   inkscape:export-xdpi="96"
   inkscape:export-ydpi="96"
   xmlns:inkscape="http://www.inkscape.org/namespaces/inkscape"
   xmlns:sodipodi="http://sodipodi.sourceforge.net/DTD/sodipodi-0.dtd"
   xmlns="http://www.w3.org/2000/svg"
   xmlns:svg="http://www.w3.org/2000/svg"><sodipodi:namedview
     id="namedview1"
     pagecolor="#ffffff"
     bordercolor="#000000"
     borderopacity="0.25"
     inkscape:showpageshadow="2"
     inkscape:pageopacity="0.0"
     inkscape:pagecheckerboard="0"
     inkscape:deskcolor="#d1d1d1"
     inkscape:document-units="px"
     inkscape:zoom="1.448527"
     inkscape:cx="75.939215"
     inkscape:cy="161.8886"
     inkscape:window-width="1920"
     inkscape:window-height="1009"
     inkscape:window-x="1912"
     inkscape:window-y="-8"
     inkscape:window-maximized="1"
     inkscape:current-layer="layer1" /><defs
     id="defs1" /><g
     inkscape:label="Capa 1"
     inkscape:groupmode="layer"
     id="layer1"><g
       id="g10"><g
         id="g2"><path
           id="path5"
           style="display:inline;fill:#005ea9;fill-opacity:1;fill-rule:evenodd;stroke:none;stroke-width:0.370417;stroke-linecap:round;stroke-linejoin:round;stroke-opacity:1"
           d="m 51.94315,2e-5 c 8.43393,1.27678 13.9984,5.8409 15.73806,14.78567 V 52.92444 C 65.94155,61.8692 60.37708,66.43332 51.94315,67.7101 h -29.3187 c -10.9946,-0.57848 -12.11042,-16.51617 0,-16.95762 l 19.72339,-0.046 c 4.75178,-0.52685 7.33143,-3.58786 8.43311,-8.37313 V 25.37676 c -1.10168,-4.78528 -3.68133,-7.84628 -8.43311,-8.37313 l -19.72339,-0.046 C 10.51403,16.51618 11.62985,0.57848 22.62445,0 Z"
           sodipodi:nodetypes="ccccccccccccc" /><path
           id="path1"
           style="display:inline;fill:#029cff;fill-opacity:1;fill-rule:evenodd;stroke:none;stroke-width:0.370417;stroke-linecap:round;stroke-linejoin:round;stroke-opacity:1"
           d="M 15.73806,2e-5 C 7.30413,1.2768 1.73966,5.84092 0,14.78569 V 52.92444 C 1.73966,61.8692 7.30413,66.43332 15.73806,67.7101 h 29.31862 c 10.9946,-0.57848 12.11042,-16.51617 0,-16.95762 l -19.72334,-0.046 c -4.75175,-0.52685 -7.3314,-3.58786 -8.43308,-8.37313 V 25.37676 c 1.10168,-4.78528 3.68133,-7.84628 8.43308,-8.37313 l 19.72334,-0.046 C 57.1671,16.51618 56.05128,0.57848 45.05668,0 Z"
           sodipodi:nodetypes="ccccccccccccc" /></g><path
         style="opacity:1;fill:#808080;fill-opacity:1;fill-rule:evenodd;stroke:none;stroke-width:0.14463;stroke-linecap:round;stroke-linejoin:round;stroke-dasharray:none;stroke-opacity:1"
         d="M 3.6758591,0.00132639 C 0.99089652,0.69876004 0.10075617,1.6525963 0.70994468,2.8206218 1.1433874,3.8839945 1.0003259,5.0521863 0.3355219,6.3152407 -0.42607553,7.9818961 0.14133055,9.3827501 1.7084069,10.58367 c 1.6165947,1.092576 1.8570662,2.486184 1.3479247,4.043771 -1.9800609,4.00777 1.3478295,3.861108 3.5445404,3.544531 2.9190024,-0.350774 1.6918024,-0.42493 4.510976,-0.309842 3.567084,0.287419 2.812644,2.342202 0.199691,2.521115 -3.5363386,0.141304 -2.6621371,0.616307 -5.983706,1.033737 -3.3740601,0.569515 -6.05302873,2.562609 -5.13409618,5.827724 0.5470342,1.784975 0.5923665,3.473481 0.2745781,5.092148 -0.5456085,2.32928 1.47069458,3.748956 3.08724778,4.780945 2.0048079,0.389301 4.0275726,0.509254 6.0656585,0.399392 2.1367498,-0.239141 1.9859668,1.46362 0.3744228,1.77226 L 5.6273714,39.564036 C 3.4683255,39.746381 -0.1018869,42.965193 0,45.740963 v 15.29325 l 1.7617488,0.0034 L 52.280524,-3.0199128e-6 Z"
         id="path10"
         sodipodi:nodetypes="cccccccccccccccccccc" /><g
         id="g8"
         transform="matrix(1.9533842,-0.3490396,0.3490396,1.9533842,-40.796828,-177.81933)"><path
           style="opacity:1;fill:#666666;fill-opacity:1;fill-rule:evenodd;stroke:none;stroke-width:0.370417;stroke-linecap:round;stroke-linejoin:round;stroke-opacity:1"
           d="m 11.233393,107.76753 c -1.143667,-1.92221 -0.274099,-3.18793 1.369928,-4.20111 l 17.80904,-7.100786 1.872231,2.191882 -10.548431,16.416284 c -0.838346,1.0645 -1.753405,1.77832 -3.013837,0.91328 z"
           id="path4"
           sodipodi:nodetypes="ccccccc" /><path
           style="opacity:1;fill:#666666;fill-opacity:1;fill-rule:evenodd;stroke:#808080;stroke-width:0.132292;stroke-linecap:round;stroke-linejoin:round;stroke-dasharray:none;stroke-opacity:1"
           d="m 16.08447,109.27131 0.892391,0.0126 0.776791,0.91119 0.0099,0.88439 -4.972576,4.81113 -1.969659,-2.06652 z"
           id="path6"
           sodipodi:nodetypes="ccccccc" /><path
           style="opacity:1;fill:#f07726;fill-opacity:1;fill-rule:evenodd;stroke:none;stroke-width:0.370417;stroke-linecap:round;stroke-linejoin:round;stroke-opacity:1"
           d="m 10.821286,113.82413 -1.7204638,0.0205 -9.16108696,8.42315 -0.03229,1.46918 1.97772796,2.29255 h 1.444956 l 9.4608148,-8.55671 v -1.58218 z"
           id="path7"
           sodipodi:nodetypes="ccccccccc" /><path
           style="opacity:1;fill:#808080;fill-opacity:1;fill-rule:evenodd;stroke:none;stroke-width:0.370417;stroke-linecap:round;stroke-linejoin:round;stroke-opacity:1"
           d="m 16.08447,109.27131 0.892391,0.0126 -6.155544,4.54019 z"
           id="path8"
           sodipodi:nodetypes="cccc" /></g></g></g></svg>
